# xmcd
#
# Track frame offsets: 
#        182
#        24950
#        43300
#        78912
#        89862
#        111525
#        141375
#        166887
#        176825
#        207012
#        232775
#        258800
#        278875
#        306200
#        326900
#
# Disc length: 4730 seconds
#
# Revision: 1
# Processed by: cddbd v1.5.2PL0 Copyright (c) Steve Scherf et al.
# Submitted via: ExactAudioCopy v1.0b1
#
DISCID=d512780f
DTITLE=Various Artist - Red Records Jazz Sampler
DYEAR=1900
DGENRE=Jazz
TTITLE0=Jim Snidero Sextet - San Juan
TTITLE1=Piero Bassini Trio - Step's Blues
TTITLE2=Giovanni Tommaso - Sixteen Blues
TTITLE3=Bobby Watson - The Narrow Pass Of Bosphorous
TTITLE4=Steve Grossmann - Taurus people
TTITLE5=Jerry Bergonzi - Tilt
TTITLE6=Franco D'Andrea - Kick Off
TTITLE7=29th Street Saxophone Quartet - Time Curtain
TTITLE8=Fabio Morgera - Aphrodite
TTITLE9=Cedar Walton Trio - Ground Work
TTITLE10=Piero Odorici Quartet - My Little Red Nose
TTITLE11=Ray Mantilla Space Station - Mantilla's Blues
TTITLE12=Walter Bishop Jr Trio - Midnight Blue
TTITLE13=Victor Lewis Quintet - Hey, It's Me You're Talkin' To
TTITLE14=Luis Agudo Quintet - Dona Fia
EXTD=
EXTT0=
EXTT1=
EXTT2=
EXTT3=
EXTT4=
EXTT5=
EXTT6=
EXTT7=
EXTT8=
EXTT9=
EXTT10=
EXTT11=
EXTT12=
EXTT13=
EXTT14=
PLAYORDER=
